HIERARCHY
ROOT Hips
{
	OFFSET 0.000000 0.000000 0.000000 
	CHANNELS 6 Xposition Yposition Zposition Yrotation Xrotation Zrotation
	JOINT Spine
	{
		OFFSET 0.000000 0.072080 0.012321 
		CHANNELS 3 Xrotation Yrotation Zrotation
		JOINT Spine1
		{
			OFFSET 0.000000 0.126984 -0.001294 
			CHANNELS 3 Xrotation Yrotation Zrotation
			JOINT Spine2
			{
				OFFSET 0.000000 0.106559 -0.010096 
				CHANNELS 3 Xrotation Yrotation Zrotation
				JOINT Neck
				{
					OFFSET 0.000000 0.108417 -0.034017 
					CHANNELS 3 Xrotation Yrotation Zrotation
					JOINT Neck1
					{
						OFFSET 0.000000 0.033906 0.007241 
						CHANNELS 3 Xrotation Yrotation Zrotation
						JOINT Head
						{
							OFFSET 0.000000 0.031458 0.006707 
							CHANNELS 3 Xrotation Yrotation Zrotation
							End Site
							{
								OFFSET 0.000000 0.179920 0.000962 
							}
						}
					}
				}
				JOINT LeftShoulder
				{
					OFFSET 0.048002 0.079586 -0.029634 
					CHANNELS 3 Zrotation Xrotation Yrotation
					JOINT LeftArm
					{
						OFFSET 0.096243 -0.008695 -0.014012 
						CHANNELS 3 Zrotation Xrotation Yrotation
						JOINT LeftForeArm
						{
							OFFSET 0.216305 0.000000 0.000000 
							CHANNELS 3 Xrotation Zrotation Yrotation
							JOINT LeftHand
							{
								OFFSET 0.217764 0.000000 0.000000 
								CHANNELS 3 Zrotation Yrotation Xrotation
								JOINT LeftHandThumb1
								{
									OFFSET 0.018582 -0.007835 0.020476 
									CHANNELS 3 Zrotation Xrotation Yrotation
									JOINT LeftHandThumb2
									{
										OFFSET 0.026269 -0.007835 0.022186 
										CHANNELS 3 Zrotation Xrotation Yrotation
										JOINT LeftHandThumb3
										{
											OFFSET 0.035170 -0.010504 0.017018 
											CHANNELS 3 Zrotation Xrotation Yrotation
											End Site
											{
												OFFSET 0.020312 -0.007813 0.007813 
											}
										}
									}
								}
								JOINT LeftHandMiddle1
								{
									OFFSET 0.081749 0.004803 0.003358 
									CHANNELS 3 Zrotation Xrotation Yrotation
									JOINT LeftHandMiddle2
									{
										OFFSET 0.045251 0.000000 0.000000 
										CHANNELS 3 Zrotation Xrotation Yrotation
										JOINT LeftHandMiddle3
										{
											OFFSET 0.029009 0.000000 0.000000 
											CHANNELS 3 Zrotation Xrotation Yrotation
											End Site
											{
												OFFSET 0.017969 0.000000 0.000000 
											}
										}
									}
								}
								JOINT LeftHandIndex1
								{
									OFFSET 0.081207 0.004803 0.021137 
									CHANNELS 3 Zrotation Xrotation Yrotation
									JOINT LeftHandIndex2
									{
										OFFSET 0.043354 0.000000 0.000000 
										CHANNELS 3 Zrotation Xrotation Yrotation
										JOINT LeftHandIndex3
										{
											OFFSET 0.026493 0.000000 0.000000 
											CHANNELS 3 Zrotation Xrotation Yrotation
											End Site
											{
												OFFSET 0.019531 0.000000 0.000000 
											}
										}
									}
								}
								JOINT LeftHandRing1
								{
									OFFSET 0.080666 0.002509 -0.014652 
									CHANNELS 3 Zrotation Xrotation Yrotation
									JOINT LeftHandRing2
									{
										OFFSET 0.042541 0.000000 0.000000 
										CHANNELS 3 Zrotation Xrotation Yrotation
										JOINT LeftHandRing3
										{
											OFFSET 0.029009 0.000000 0.000000 
											CHANNELS 3 Zrotation Xrotation Yrotation
											End Site
											{
												OFFSET 0.015625 0.000000 0.000000 
											}
										}
									}
								}
								JOINT LeftHandPinky1
								{
									OFFSET 0.078227 -0.000612 -0.030993 
									CHANNELS 3 Zrotation Xrotation Yrotation
									JOINT LeftHandPinky2
									{
										OFFSET 0.028721 0.000000 0.000000 
										CHANNELS 3 Zrotation Xrotation Yrotation
										JOINT LeftHandPinky3
										{
											OFFSET 0.021963 0.000000 0.000000 
											CHANNELS 3 Zrotation Xrotation Yrotation
											End Site
											{
												OFFSET 0.022656 0.000000 0.000000 
											}
										}
									}
								}
							}
						}
					}
				}
				JOINT RightShoulder
				{
					OFFSET -0.047970 0.079586 -0.029634 
					CHANNELS 3 Zrotation Xrotation Yrotation
					JOINT RightArm
					{
						OFFSET -0.096274 -0.008695 -0.014012 
						CHANNELS 3 Zrotation Xrotation Yrotation
						JOINT RightForeArm
						{
							OFFSET -0.216305 0.000000 0.000000 
							CHANNELS 3 Xrotation Zrotation Yrotation
							JOINT RightHand
							{
								OFFSET -0.217764 0.000000 0.000000 
								CHANNELS 3 Zrotation Yrotation Xrotation
								JOINT RightHandThumb1
								{
									OFFSET -0.019670 -0.007318 0.019638 
									CHANNELS 3 Zrotation Xrotation Yrotation
									JOINT RightHandThumb2
									{
										OFFSET -0.025498 -0.008492 0.023179 
										CHANNELS 3 Zrotation Xrotation Yrotation
										JOINT RightHandThumb3
										{
											OFFSET -0.034504 -0.010705 0.016680 
											CHANNELS 3 Zrotation Xrotation Yrotation
											End Site
											{
												OFFSET -0.020312 -0.007813 0.007813 
											}
										}
									}
								}
								JOINT RightHandIndex1
								{
									OFFSET -0.081770 0.003825 0.021187 
									CHANNELS 3 Zrotation Xrotation Yrotation
									JOINT RightHandIndex2
									{
										OFFSET -0.042006 0.000000 0.000000 
										CHANNELS 3 Zrotation Xrotation Yrotation
										JOINT RightHandIndex3
										{
											OFFSET -0.026449 0.000000 0.000000 
											CHANNELS 3 Zrotation Xrotation Yrotation
											End Site
											{
												OFFSET -0.020312 0.000000 0.000000 
											}
										}
									}
								}
								JOINT RightHandMiddle1
								{
									OFFSET -0.084059 0.003825 0.003342 
									CHANNELS 3 Zrotation Xrotation Yrotation
									JOINT RightHandMiddle2
									{
										OFFSET -0.043881 0.000000 0.000000 
										CHANNELS 3 Zrotation Xrotation Yrotation
										JOINT RightHandMiddle3
										{
											OFFSET -0.029191 0.000000 0.000000 
											CHANNELS 3 Zrotation Xrotation Yrotation
											End Site
											{
												OFFSET -0.017969 0.000000 0.000000 
											}
										}
									}
								}
								JOINT RightHandRing1
								{
									OFFSET -0.081798 0.003030 -0.015127 
									CHANNELS 3 Zrotation Xrotation Yrotation
									JOINT RightHandRing2
									{
										OFFSET -0.042198 0.000000 0.000000 
										CHANNELS 3 Zrotation Xrotation Yrotation
										JOINT RightHandRing3
										{
											OFFSET -0.026497 0.000000 0.000000 
											CHANNELS 3 Zrotation Xrotation Yrotation
											End Site
											{
												OFFSET -0.017188 0.000000 0.000000 
											}
										}
									}
								}
								JOINT RightHandPinky1
								{
									OFFSET -0.077902 -0.000930 -0.030891 
									CHANNELS 3 Zrotation Xrotation Yrotation
									JOINT RightHandPinky2
									{
										OFFSET -0.028538 0.000000 0.000000 
										CHANNELS 3 Zrotation Xrotation Yrotation
										JOINT RightHandPinky3
										{
											OFFSET -0.021734 0.000000 0.000000 
											CHANNELS 3 Zrotation Xrotation Yrotation
											End Site
											{
												OFFSET -0.022656 0.000000 0.000000 
											}
										}
									}
								}
							}
						}
					}
				}
			}
		}
	}
	JOINT LeftUpLeg
	{
		OFFSET 0.075264 -0.025573 0.000000 
		CHANNELS 3 Xrotation Yrotation Zrotation
		JOINT LeftLeg
		{
			OFFSET 0.000000 -0.326016 -0.013516 
			CHANNELS 3 Xrotation Yrotation Zrotation
			JOINT LeftFoot
			{
				OFFSET 0.000098 -0.306172 -0.006623 
				CHANNELS 3 Xrotation Yrotation Zrotation
				JOINT LeftToeBase
				{
					OFFSET -0.001432 -0.095259 0.064705 
					CHANNELS 3 Xrotation Yrotation Zrotation
					End Site
					{
						OFFSET 0.000000 0.000000 0.079438 
					}
				}
			}
		}
	}
	JOINT RightUpLeg
	{
		OFFSET -0.075264 -0.025573 0.000000 
		CHANNELS 3 Xrotation Yrotation Zrotation
		JOINT RightLeg
		{
			OFFSET 0.000000 -0.326016 -0.013516 
			CHANNELS 3 Xrotation Yrotation Zrotation
			JOINT RightFoot
			{
				OFFSET 0.000098 -0.306172 -0.006623 
				CHANNELS 3 Xrotation Yrotation Zrotation
				JOINT RightToeBase
				{
					OFFSET -0.001432 -0.095259 0.064705 
					CHANNELS 3 Xrotation Yrotation Zrotation
					End Site
					{
						OFFSET 0.000025 0.000000 0.079438 
					}
				}
			}
		}
	}
}
MOTION
Frames: 7
Frame Time: 0.033333
-0.001080 0.696501 -0.000188 69.632797 8.119600 -6.707100 7.695500 -5.932700 4.565900 2.613100 -2.536900 1.548900 2.596900 -2.534900 1.582200 -1.414500 -8.982900 1.346200 -0.000000 0.000000 -0.000000 -12.898500 -41.458199 6.061100 -12.965900 6.542300 -22.692600 -46.241699 16.677999 16.456200 0.000000 -0.000000 -62.858799 41.800598 -15.389600 1.901200 -8.349000 9.082600 8.200100 7.196400 -4.995200 3.760400 1.861100 -3.339600 -2.057400 -13.005400 -0.689300 2.140700 -17.575800 -0.240000 0.739100 -4.635100 -0.003800 0.262500 -3.933700 -0.246300 -1.142000 -9.231400 -0.106600 0.764500 -4.883100 -0.018900 -0.219200 -19.909700 -1.129600 5.853500 -16.893801 0.072900 0.298300 -9.135100 0.133300 -0.029800 -19.088800 -1.153600 9.127100 -22.303101 -0.108600 -0.250400 5.714600 0.041400 0.864800 13.316500 2.722400 -5.363800 43.473400 22.615801 -13.678500 -0.000000 0.000000 64.444000 3.728200 -17.724701 34.501202 11.241900 10.614800 -6.136100 -6.797500 -4.739000 -7.474100 -2.162000 -1.363000 -10.098500 13.162700 -0.590600 0.832500 17.768600 -0.275300 -1.092700 17.027800 -0.120500 0.892100 28.462000 -1.629300 -2.513600 32.379101 -0.630900 -1.253300 23.093000 -0.132000 -0.519500 41.707001 -2.479600 -6.203900 38.221500 -0.082700 -1.020500 28.744499 0.104000 1.285500 52.120098 -3.095900 -9.352300 55.474602 -0.719900 -0.569000 28.425699 -0.524700 1.715700 -23.345100 9.090000 6.609400 100.340500 9.921800 0.732900 5.936700 5.780000 -12.385600 -8.134400 0.000000 0.000000 -25.686701 3.059800 12.374700 43.933300 -1.298200 -4.032500 -26.909599 0.007600 -0.097400 -1.897000 -0.000000 -0.000000 
0.081000 0.702952 -0.000278 70.396004 8.990500 -7.189600 7.007800 -4.644100 4.651300 2.433500 -1.973200 1.477200 2.419700 -1.975800 1.498900 -0.886400 -9.432000 1.918200 -0.000000 0.000000 -0.000000 -11.619300 -42.705002 7.622800 -10.561600 5.560600 -19.835400 -49.205399 20.155300 26.361500 0.000000 0.000000 -65.544197 35.410198 -25.829100 -6.963200 -8.337400 9.087800 8.228700 11.143300 -4.806000 3.115200 1.700300 -3.405000 -1.796400 -6.062600 -0.301500 0.758600 -18.052200 -0.247100 0.735800 -5.155500 -0.004700 0.261100 4.455400 0.210200 -2.409400 -10.970900 -0.129700 0.758000 -6.721500 -0.018600 -0.222300 -15.203700 -0.845600 5.116700 -17.829000 0.077200 0.296600 -10.053400 0.142600 -0.031200 -12.493700 -1.032100 8.970200 -24.208599 -0.116400 -0.258600 3.807300 0.024900 0.861700 12.003900 3.175700 -1.452200 44.335201 23.117701 -4.295500 -0.000000 0.000000 64.141098 9.186900 -15.434800 31.105400 10.457900 8.573400 -6.556600 -6.025600 -4.852100 -7.578700 -2.484600 -1.501800 -9.229200 13.628500 -0.574600 1.604200 16.229700 -0.246300 -1.069900 15.489500 -0.112200 0.920600 30.477800 -1.739700 -1.761600 31.523600 -0.610500 -1.247000 22.236500 -0.124500 -0.505700 42.399799 -2.509200 -6.013800 37.447701 -0.076500 -1.007700 27.970900 0.103900 1.301200 52.849400 -3.299500 -8.236500 55.192402 -0.714700 -0.567300 28.152000 -0.520300 1.719100 -37.536400 3.829100 7.813900 105.708298 9.778700 0.544500 0.110700 6.112300 -8.688300 -5.037100 -0.000000 0.000000 -13.292000 2.877500 9.957100 32.306599 -0.024900 -5.034100 -28.452000 -0.925200 2.093700 -1.060100 -0.000000 -0.000000 
0.168437 0.713156 -0.003563 72.288498 9.432400 -6.380800 6.133300 -2.999500 3.918700 2.232000 -1.255900 1.246900 2.223400 -1.261700 1.258800 -0.079000 -10.253700 2.590100 -0.000000 0.000000 -0.000000 -9.635300 -45.652000 9.628500 -8.313200 4.836200 -18.340099 -50.240799 23.541201 35.531601 0.000000 -0.000000 -69.838203 28.759800 -34.809700 -14.283700 -8.389100 9.041300 8.072100 15.666400 -4.756800 4.123300 1.309600 -3.241300 -2.587200 0.584300 0.072100 -0.291400 -18.730900 -0.257100 0.731000 -5.867500 -0.005900 0.259000 12.322100 0.648300 -3.292900 -12.216400 -0.146100 0.752900 -8.025200 -0.018300 -0.224400 -10.196400 -0.562700 4.818700 -18.834801 0.081800 0.294800 -11.050600 0.152700 -0.032500 -6.418400 -0.794800 8.812500 -26.127300 -0.123900 -0.267000 1.898200 0.008400 0.858200 10.500400 3.447500 1.460300 44.528099 21.175200 2.925700 0.000000 0.000000 66.265198 14.081400 -12.881000 30.408300 10.208200 7.007100 -5.635000 -6.310200 -5.329600 -8.356900 -2.671700 -1.676600 -8.303100 13.963700 -0.452900 3.494900 14.975200 -0.223000 -1.050900 14.234200 -0.106000 0.944000 33.487202 -1.897300 -0.228500 30.616100 -0.589100 -1.239900 21.324900 -0.116700 -0.490900 42.961201 -2.523800 -5.678600 36.933800 -0.072500 -0.999300 27.456100 0.103800 1.311700 54.488201 -3.364800 -6.206400 55.359501 -0.717800 -0.568300 28.303200 -0.522700 1.717200 -48.190102 0.084100 6.777800 102.908798 9.873900 0.648900 -4.464000 5.881700 -6.792400 -2.063400 -0.000000 0.000000 -5.074100 0.045800 6.277000 25.971800 3.323300 -5.864800 -15.326600 -1.654800 6.885700 -13.274600 0.006100 -0.908600 
0.260063 0.724449 -0.009306 75.369598 9.796800 -4.438700 5.147000 -0.898000 2.789900 1.972700 -0.405100 0.911700 1.969600 -0.411900 0.916500 0.700500 -11.463900 3.171800 -0.000000 0.000000 -0.000000 -7.738700 -50.366001 11.233200 -6.531800 4.492100 -18.526899 -48.812099 26.600800 42.537399 -0.000000 0.000000 -73.111397 21.620199 -38.830200 -16.822300 -8.415000 9.029200 8.007900 19.256500 -4.814600 6.272100 0.703200 -2.969600 -4.125900 5.427900 0.343300 -0.913700 -19.271601 -0.265000 0.727100 -6.431300 -0.006800 0.257400 17.471901 0.932800 -3.598200 -12.806300 -0.153900 0.750400 -8.633500 -0.018100 -0.225500 -6.306400 -0.353800 4.850700 -19.366400 0.084200 0.293900 -11.581200 0.158100 -0.033100 -1.730600 -0.506700 8.829100 -27.086399 -0.127600 -0.271300 0.943300 0.000200 0.856200 9.174900 3.507500 2.727000 43.847000 16.982100 7.094100 0.000000 0.000000 72.882401 16.621700 -9.595200 33.534500 10.493000 5.917300 -3.676600 -7.326600 -6.148700 -9.765400 -2.698600 -1.868700 -7.433100 14.349900 -0.312800 5.889900 14.063600 -0.206400 -1.036700 13.320700 -0.101800 0.961100 36.877300 -2.070100 1.592900 29.756100 -0.568900 -1.232900 20.460699 -0.109500 -0.476700 43.557201 -2.535700 -5.253700 36.595901 -0.070000 -0.993700 27.115801 0.103600 1.318600 56.794800 -3.325900 -3.864800 55.783298 -0.725600 -0.570900 28.698900 -0.529200 1.712400 -54.785599 -1.803500 3.933600 91.981903 9.966900 1.083900 -8.324800 5.076900 -6.242800 -0.039700 -0.000000 -0.000000 4.945500 -3.905700 2.336000 15.689300 6.229900 -6.510100 0.971900 -0.997700 9.832300 -17.513800 0.048600 -2.390200 
0.354731 0.732319 -0.015769 78.837601 10.336500 -2.392300 4.223800 1.482100 2.017700 1.646400 0.470400 0.610600 1.646500 0.465500 0.609600 1.253200 -12.831800 3.522900 -0.000000 0.000000 -0.000000 -6.968200 -55.791302 11.412900 -5.539200 4.531400 -20.018200 -45.496101 28.926600 46.296902 0.000000 0.000000 -72.597000 14.182200 -36.531898 -12.176100 -8.319200 9.126800 8.312600 20.786699 -4.864100 8.156800 -0.022500 -2.753400 -5.845700 7.841000 0.477000 -1.149600 -19.387600 -0.266700 0.726200 -6.565100 -0.007000 0.257000 19.006001 0.989700 -3.312400 -12.792600 -0.153700 0.750400 -8.612500 -0.018100 -0.225400 -4.343100 -0.255100 5.008300 -18.974400 0.082400 0.294600 -11.193100 0.154200 -0.032600 1.204700 -0.252200 9.186900 -26.312901 -0.124600 -0.267800 1.695900 0.006700 0.857800 8.623000 3.414400 2.300300 42.194000 11.963600 7.879800 -0.000000 0.000100 84.133698 13.647500 -5.884600 39.363899 11.028400 5.294500 -1.812500 -8.266500 -7.059700 -11.193200 -2.586200 -2.052500 -6.623900 14.462100 -0.257500 7.647700 13.425000 -0.194900 -1.026600 12.681800 -0.099100 0.973100 38.838501 -2.166000 2.793900 28.944599 -0.549900 -1.226000 19.649300 -0.102900 -0.463300 43.743401 -2.530100 -4.937600 35.956001 -0.065100 -0.983000 26.473600 0.103200 1.331600 58.173000 -3.279000 -2.405800 55.454498 -0.719600 -0.568900 28.358801 -0.523600 1.716500 -57.002899 -2.300900 0.907900 74.998596 9.994700 1.728800 -11.591500 3.685100 -6.698200 1.090800 0.000000 0.000000 13.529300 -7.177600 -0.304200 7.588000 6.843100 -7.589500 15.434900 0.583300 11.341400 -13.556000 0.000000 -0.000000 
0.451518 0.733707 -0.021234 81.240402 10.657200 -1.531800 3.649600 3.475500 2.168300 1.339800 1.154800 0.491400 1.339200 1.154400 0.484100 1.655100 -13.875400 3.628600 -0.000000 0.000000 -0.000000 -7.955200 -59.825901 9.632800 -5.515600 4.790200 -21.672001 -42.049500 30.123600 46.769199 0.000000 0.000000 -67.336304 7.459800 -29.723700 -1.515200 -8.169300 9.247600 8.748600 20.299900 -4.838100 8.462700 -0.606800 -2.672600 -6.948900 7.800400 0.475200 -1.182600 -19.310600 -0.265500 0.726800 -6.499600 -0.006900 0.257200 17.782200 0.925800 -2.807500 -12.501000 -0.149900 0.751700 -8.301300 -0.018200 -0.224900 -4.490000 -0.268900 5.120300 -18.126101 0.078500 0.296100 -10.349800 0.145600 -0.031600 1.620000 -0.142000 9.745500 -24.643200 -0.118100 -0.260400 3.326900 0.020700 0.860900 9.221700 3.310100 1.086000 39.881100 8.470100 6.101900 -0.000000 -0.000100 96.337303 5.296000 -1.962900 44.400600 11.328600 5.340800 -1.381700 -8.469800 -7.676900 -11.623900 -2.378600 -2.219200 -5.640300 13.105600 -0.290000 7.760400 12.849200 -0.184700 -1.017400 12.111300 -0.096700 0.983800 36.769901 -2.049900 2.615900 27.957600 -0.527000 -1.217300 18.668301 -0.095300 -0.447100 41.992298 -2.434700 -5.001000 34.224998 -0.052800 -0.953900 24.745399 0.101300 1.366700 55.771702 -3.259600 -2.961200 52.707100 -0.669300 -0.550900 25.650200 -0.480100 1.751100 -54.928902 -2.052800 -0.162200 56.454399 8.035400 2.305100 -12.793400 2.301800 -7.890600 1.495500 0.000000 -0.000000 15.284900 -7.662000 -1.061000 13.402600 3.851000 -9.082400 21.804701 1.744100 12.255800 -8.892300 0.000000 -0.000000 
0.548591 0.729412 -0.025505 81.789703 9.984300 -2.011100 3.702600 4.144500 3.016400 1.220800 1.390500 0.565400 1.217400 1.396700 0.552900 2.019100 -14.155200 3.501200 -0.000000 0.000000 -0.000000 -9.952500 -60.755299 6.854600 -6.437400 5.075600 -22.417900 -39.942101 30.070900 44.442101 0.000000 -0.000000 -58.864899 2.512700 -20.799999 10.958000 -8.281200 9.099600 8.348800 18.603300 -4.885600 7.534700 -0.668300 -2.648500 -6.547600 4.329100 0.286700 -1.191400 -19.883801 -0.273900 0.722500 -7.065200 -0.007800 0.255500 14.601700 0.757800 -2.704100 -12.302800 -0.147300 0.752500 -8.069900 -0.018300 -0.224500 -7.428400 -0.431500 5.174700 -18.457199 0.080000 0.295500 -10.682600 0.149000 -0.032000 -2.877500 -0.315600 9.907300 -24.922400 -0.119200 -0.261700 3.040800 0.018300 0.860400 10.623500 3.300700 0.242100 37.763802 8.212200 3.373300 0.000000 0.000000 103.515602 0.051900 2.005500 45.679699 11.053200 6.426200 -2.769800 -8.182900 -7.756000 -10.402900 -2.098500 -2.388700 -4.127600 8.911200 -0.267700 6.209200 12.133700 -0.172000 -1.005900 11.407100 -0.093900 0.997100 29.171900 -1.623900 1.203300 26.463900 -0.492600 -1.203300 17.183399 -0.084200 -0.422100 36.562698 -2.149600 -5.537200 30.879299 -0.031300 -0.896700 21.411900 0.094700 1.434100 47.483398 -3.095900 -5.534400 46.467899 -0.558700 -0.501200 19.512800 -0.387900 1.836800 -49.564999 -1.188300 1.146100 42.147499 4.504000 2.401300 -10.757100 1.584900 -8.688900 0.696700 0.000100 0.000000 11.024300 -5.478100 -0.653700 32.412899 -1.681900 -9.934900 20.855000 0.346600 13.148700 -7.434900 0.000000 -0.000000 
